<?xml version="1.0" encoding="utf-8"?>
<!-- Generator: Adobe Illustrator 19.2.1, SVG Export Plug-In . SVG Version: 6.00 Build 0)  -->
<svg version="1.1" id="Layer_1" xmlns="http://www.w3.org/2000/svg" xmlns:xlink="http://www.w3.org/1999/xlink" x="0px" y="0px"
	 viewBox="0 0 17 17" enable-background="new 0 0 17 17" xml:space="preserve">
  <g>
    <g>
      <path fill="#FBFEFF" d="M16.381,17c-0.158,0-0.317-0.06-0.438-0.181L0.181,1.057c-0.242-0.242-0.242-0.634,0-0.875
        s0.634-0.242,0.876,0l15.762,15.762c0.242,0.242,0.242,0.634,0,0.875C16.698,16.94,16.539,17,16.381,17z"/>
    </g>
    <g>
      <path fill="#FBFEFF" d="M0.619,17c-0.158,0-0.317-0.06-0.438-0.181c-0.242-0.242-0.242-0.634,0-0.875L15.943,0.181
        c0.242-0.242,0.634-0.242,0.876,0c0.242,0.242,0.242,0.634,0,0.875L1.057,16.819C0.936,16.94,0.778,17,0.619,17z"/>
    </g>
  </g>
</svg>