<svg xmlns="http://www.w3.org/2000/svg" width="17" height="17" viewBox="0 0 17 17">
    <g fill="none" fill-rule="evenodd">
        <path d="M8.5 9.07L12.49 6.8 13.53 6.21 15.49 5.09 8.5 1.12 1.51 5.09 3.47 6.21 4.51 6.8zM8.72 13.54c-.07.04-.14.06-.22.06-.08 0-.15-.02-.22-.06L3.46 10.8 1.5 11.91l6.99 3.98 6.99-3.98-1.96-1.11-4.8 2.74z"/>
        <path d="M8.72 10.13c-.07.04-.14.06-.22.06-.08 0-.15-.02-.22-.06L3.47 7.39 1.51 8.5l6.99 3.98 6.99-3.98-1.96-1.11-4.81 2.74z"/>
        <path fill="#A6A6A6" fill-rule="nonzero" d="M17 8.5c0-.2-.1-.38-.26-.47L14.57 6.8l2.17-1.24c.16-.09.26-.27.26-.47 0-.2-.1-.38-.26-.47L8.72.06c-.14-.08-.3-.08-.43 0L.26 4.62c-.16.09-.26.27-.26.47 0 .2.1.38.26.47L2.43 6.8.26 8.03C.1 8.12 0 8.3 0 8.5c0 .2.1.38.26.47l2.17 1.24-2.17 1.24c-.16.08-.26.26-.26.46s.1.38.26.47l8.03 4.57c.06.03.14.05.21.05.07 0 .15-.02.22-.06l8.03-4.57c.15-.08.25-.26.25-.46s-.1-.38-.26-.47l-2.17-1.24 2.17-1.24c.16-.08.26-.26.26-.46zM1.51 5.09L8.5 1.12l6.99 3.98-1.96 1.11-1.04.59L8.5 9.07 4.51 6.8l-1.04-.59-1.96-1.12zm13.98 6.82L8.5 15.88 1.51 11.9l1.96-1.11 4.82 2.74c.07.04.14.06.22.06.08 0 .15-.02.22-.06l4.82-2.74 1.94 1.12zm-6.99.57L1.51 8.5l1.96-1.11 4.81 2.74c.07.04.14.06.22.06.08 0 .15-.02.22-.06l4.81-2.74 1.96 1.11-6.99 3.98z"/>
    </g>
</svg>
