<svg xmlns="http://www.w3.org/2000/svg" width="17" height="17" viewBox="0 0 17 17">
    <path fill="#B3B3B3" fill-rule="evenodd" d="M13.18 1.468l2.352 2.352c.866.867.866 2.27 0 3.137l-8.298 8.298L.94 16.89c-.364.095-.736-.124-.831-.488-.03-.113-.03-.23 0-.343l1.635-6.293 8.298-8.298c.866-.866 2.27-.866 3.137 0zM2.529 10.55l-.995 4.335.529.612 4.387-1.025 6.731-6.73L9.26 3.82 3.303 9.776l3.922 3.922-.775.774L2.53 10.55zm11.435-3.593l.784-.784c.433-.433.433-1.135 0-1.569l-2.352-2.352c-.434-.433-1.136-.433-1.569 0l-.784.784 3.92 3.92zm-8.319 5.182l5.966-5.966-.784-.784-5.966 5.966.784.784z"/>
</svg>
