<svg xmlns="http://www.w3.org/2000/svg" xmlns:xlink="http://www.w3.org/1999/xlink" width="17" height="17" viewBox="0 0 17 17">
    <defs>
        <path id="prefix__a" d="M2.852 8.516c.952-.95 2.368-1.267 3.637-.816l-3.997 3.98c-.578.586-.578 1.525 0 2.11l.71.707c.587.577 1.53.577 2.118 0l4.016-3.931c.452 1.264.133 2.674-.82 3.623L6.759 15.95C6.102 16.621 5.201 17 4.261 17s-1.842-.379-2.498-1.05l-.71-.706C.38 14.59 0 13.692 0 12.755c0-.937.38-1.834 1.054-2.488zm8.192-3.932c.257-.249.628-.342.973-.245.345.098.612.37.7.717.087.346-.017.713-.274.962L11.094 7.33 9.646 8.774l-.83.826-2.437 2.39c-.222.332-.623.5-1.017.427-.394-.074-.706-.376-.792-.767-.085-.39.072-.794.4-1.024l2.438-2.439.83-.826 1.448-1.433zM12.773 0c.939 0 1.838.375 2.497 1.041l.71.727c1.36 1.362 1.36 3.564 0 4.926L14.21 8.456c-.954.945-2.37 1.26-3.636.806l2.228-2.25 1.758-1.721c.284-.28.443-.662.443-1.06s-.16-.78-.443-1.06l-.7-.697c-.28-.282-.664-.441-1.063-.441-.4 0-.783.159-1.064.441L9.975 4.226l-2.227 2.22c-.455-1.262-.14-2.672.809-3.623l1.718-1.782C10.935.375 11.834 0 12.773 0z"/>
    </defs>
    <g fill="none" fill-rule="evenodd">
        <use fill="#4D4D4D" fill-rule="nonzero" xlink:href="#prefix__a"/>
    </g>
</svg>
