<svg xmlns="http://www.w3.org/2000/svg" width="17" height="17" viewBox="0 0 17 17">
    <path fill="#FFF" fill-rule="evenodd" d="M6 1l.001.999L2 2c-.513 0-.936.386-.993.883L1 3v12c0 .513.386.936.883.993L2 16h12c.513 0 .936-.386.993-.883L15 15v-4.016l1-.002V15c0 1.105-.895 2-2 2H2c-1.105 0-2-.895-2-2V3c0-1.105.895-2 2-2h4zm10.439-1c.084 0 .175.007.252.042.12.05.218.147.267.267C17 .393 17 .477 17 .56v5.943c-.007.274-.224.505-.498.498-.274-.007-.498-.231-.498-.498V1.74l-9.108 9.107c-.203.204-.54.204-.743 0-.204-.203-.204-.54 0-.743L15.26.996h-4.758c-.274-.007-.498-.231-.498-.498.007-.274.231-.498.498-.498h5.937z"/>
</svg>
