<svg xmlns="http://www.w3.org/2000/svg" width="17" height="13" viewBox="0 0 17 13">
  <metadata><?xpacket begin="﻿" id="W5M0MpCehiHzreSzNTczkc9d"?>
<x:xmpmeta xmlns:x="adobe:ns:meta/" x:xmptk="Adobe XMP Core 5.6-c138 79.159824, 2016/09/14-01:09:01        ">
   <rdf:RDF xmlns:rdf="http://www.w3.org/1999/02/22-rdf-syntax-ns#">
      <rdf:Description rdf:about=""/>
   </rdf:RDF>
</x:xmpmeta>


<?xpacket end="w"?></metadata>
<defs>
    <style>
      .cls-1 {
        fill: #ccc;
        fill-rule: evenodd;
      }
    </style>
  </defs>
  <path id="icon_view" class="cls-1" d="M796.5,602c4.135,0,7.5,2.467,7.5,5.5s-3.365,5.5-7.5,5.5-7.5-2.467-7.5-5.5,3.364-5.5,7.5-5.5m0-1c-4.694,0-8.5,2.91-8.5,6.5s3.806,6.5,8.5,6.5,8.5-2.91,8.5-6.5-3.806-6.5-8.5-6.5h0Zm0,4a2.5,2.5,0,1,1-2.5,2.5,2.5,2.5,0,0,1,2.5-2.5m0-1a3.5,3.5,0,1,0,3.5,3.5,3.5,3.5,0,0,0-3.5-3.5h0Z" transform="translate(-788 -601)"/>
</svg>
