<svg xmlns="http://www.w3.org/2000/svg" xmlns:xlink="http://www.w3.org/1999/xlink" width="17" height="17" viewBox="0 0 17 17">
    <defs>
        <path id="prefix__a" d="M15 0c1.105 0 2 .951 2 2.125V17h-3v-1c0-.552-.448-1-1-1h-2v-2h3l.117-.007c.497-.057.883-.48.883-.993 0-.552-.448-1-1-1h-3V9h3c.552 0 1-.448 1-1s-.448-1-1-1h-3.764C9.686 6.386 8.89 6 8 6H6V2.125C6 1.002 6.82.083 7.857.005L8 0h7zM8 7c1.105 0 2 .895 2 2v8H0V9c0-1.105.895-2 2-2h6zm-4 6H2v2h2v-2zm4 0H6v2h2v-2zM4 9H2v2h2V9zm4 0H6v2h2V9zm6-6H9c-.552 0-1 .448-1 1s.448 1 1 1h5c.552 0 1-.448 1-1s-.448-1-1-1z"/>
    </defs>
    <g fill="none" fill-rule="evenodd">
        <use fill="#4D4D4D" xlink:href="#prefix__a"/>
    </g>
</svg>
