<svg xmlns="http://www.w3.org/2000/svg" width="12" height="16" viewBox="0 0 12 16">
    <path fill="gray" fill-rule="evenodd" d="M0 4V3a1 1 0 0 1 1-1h2a2 2 0 0 1 2-2h2a2 2 0 0 1 2 2h2a1 1 0 0 1 1 1v1a1 1 0 0 1-.883.993L11 5v9a2 2 0 0 1-2 2H3a2 2 0 0 1-2-2V5a1 1 0 0 1-1-1zm10 1H2v9a1 1 0 0 0 .883.993L3 15h6a1 1 0 0 0 .993-.883L10 14V5zM4.5 7a.5.5 0 0 1 .5.5v5a.5.5 0 1 1-1 0v-5a.5.5 0 0 1 .5-.5zm3 0a.5.5 0 0 1 .5.5v5a.5.5 0 1 1-1 0v-5a.5.5 0 0 1 .5-.5zM11 3H1v1h10V3zM7 1H5a1 1 0 0 0-.993.883L4 2h4a1 1 0 0 0-.883-.993L7 1z"/>
</svg>
