<svg xmlns="http://www.w3.org/2000/svg" xmlns:xlink="http://www.w3.org/1999/xlink" width="17" height="18" viewBox="0 0 17 18">
    <defs>
        <path id="prefix__a" d="M3.374 9.488C2.929 9.2 2.538 8.835 2.22 8.41c-.717-1.042-1.082-2.287-1.04-3.552 0-1.312.521-2.57 1.447-3.496C3.426.508 4.535.016 5.702 0c1.166.016 2.275.508 3.073 1.362.943.942 1.465 2.228 1.447 3.564.017.249.017.5 0 .749-.095.994-.459 1.944-1.051 2.746l-.08.091c-.296.383-.655.713-1.061.976-.693.457-1.5.709-2.328.726-.829-.017-1.636-.269-2.328-.726zm7.978 2.837v1.862c-.009 1.058-.6 2.023-1.537 2.508-.347.194-.733.282-1.13.304H2.876C1.316 17 0 15.754 0 14.187v-1.862c-.001-1.163.759-2.208 1.837-2.633 1.018 1.047 2.408 1.643 3.865 1.657 1.33.004 2.616-.48 3.616-1.362.1-.08.194-.168.282-.26.44.172.829.453 1.13.817.123.15.229.314.317.488.188.35.292.738.305 1.135.006.052.006.106 0 .158zm.904-1.293c-.33-.986-1.038-1.798-1.966-2.259.51-.798.835-1.702.949-2.644.526-.516 1.231-.805 1.966-.806.767.015 1.495.338 2.023.896.597.605.937 1.419.95 2.27.035.918-.253 1.818-.814 2.543-.538.642-1.323 1.022-2.159 1.044-.252-.003-.503-.041-.746-.114-.02-.318-.089-.632-.203-.93zm.995 2.179c.97-.007 1.905-.375 2.621-1.033.656.111 1.134.683 1.13 1.35v2.134c0 .752-.61 1.342-1.36 1.342h-4.345c.786-.733 1.224-1.74 1.23-2.817V13.13c.237.055.48.081.724.08z"/>
    </defs>
    <g fill="none" fill-rule="evenodd">
        <use fill="#4D4D4D" fill-rule="nonzero" xlink:href="#prefix__a"/>
    </g>
</svg>
