<?xml version="1.0" encoding="utf-8"?>
<!-- Generator: Adobe Illustrator 19.2.1, SVG Export Plug-In . SVG Version: 6.00 Build 0)  -->
<svg version="1.1" id="Layer_1" xmlns="http://www.w3.org/2000/svg" xmlns:xlink="http://www.w3.org/1999/xlink" x="0px" y="0px"
	 viewBox="0 0 17 17" style="enable-background:new 0 0 17 17;" xml:space="preserve">
<style type="text/css">
	.st0{fill:#FFFFFF;}
</style>
<g>
</g>
<path class="st0" d="M12.4,3.68L8.91,0.19C8.85,0.13,8.79,0.07,8.7,0.04c-0.12-0.05-0.26-0.05-0.38,0C8.24,0.07,8.17,0.13,8.11,0.19
	L4.62,3.68c-0.19,0.19-0.19,0.51,0,0.71c0.19,0.19,0.51,0.19,0.71,0l2.65-2.65v8.73c0,0.29,0.24,0.53,0.53,0.53
	c0.29,0,0.53-0.24,0.53-0.53V1.74l2.65,2.65c0.19,0.19,0.51,0.19,0.71,0S12.59,3.88,12.4,3.68z"/>
<path class="st0" d="M16,11v4c0,0.55-0.45,1-1,1H2c-0.55,0-1-0.45-1-1v-4H0v4c0,1.1,0.9,2,2,2h13c1.1,0,2-0.9,2-2v-4H16z"/>
</svg>
