<svg xmlns="http://www.w3.org/2000/svg" xmlns:xlink="http://www.w3.org/1999/xlink" width="17" height="15" viewBox="0 0 17 15">
    <defs>
        <path id="prefix__a" d="M9.665 9.422l-.697.569c-.183.14-.733.607-.843.715-.11.108-.259.168-.413.166l-1.346-.166c-.173 0-.315.139-.319.312v1.235c-.001.154-.064.301-.174.41-.11.108-.258.167-.413.166H4.184c-.077 0-.152.03-.207.084-.055.055-.087.129-.087.206v1.254c-.002.18-.162.4-.23.457-.067.057-.264.057-.483.057H1.05C.38 14.87 0 14.978 0 14.373v-1.784c0-.169.105-.434.235-.543L6.42 6.828l.726-.623C7.051 5.819 7 5.415 7 5c0-2.761 2.239-5 5-5s5 2.239 5 5-2.239 5-5 5c-.843 0-1.638-.209-2.335-.578zm1.919-5.124c-.007.439.252.839.655 1.012.404.173.872.085 1.185-.223.313-.308.408-.775.242-1.181-.167-.407-.563-.672-1.002-.671-.284-.003-.557.108-.76.307-.203.2-.318.472-.32.756z"/>
    </defs>
    <g fill="none" fill-rule="evenodd">
        <use fill="#4D4D4D" xlink:href="#prefix__a"/>
    </g>
</svg>
