<?xml version="1.0" encoding="utf-8"?>
<!-- Generator: Adobe Illustrator 19.2.1, SVG Export Plug-In . SVG Version: 6.00 Build 0)  -->
<svg version="1.1" id="Layer_1" xmlns="http://www.w3.org/2000/svg" xmlns:xlink="http://www.w3.org/1999/xlink" x="0px" y="0px"
	 viewBox="0 0 17 17" style="enable-background:new 0 0 17 17;" xml:space="preserve">
<style type="text/css">
	.st0{fill:#FFFFFF;}
</style>
<g>
	<path class="st0" d="M6.6,1c3.09,0,5.6,2.51,5.6,5.6c0,3.09-2.51,5.6-5.6,5.6C3.51,12.2,1,9.69,1,6.6C1,3.51,3.51,1,6.6,1 M6.6,0
		C2.96,0,0,2.95,0,6.6c0,3.65,2.96,6.6,6.6,6.6s6.6-2.96,6.6-6.6C13.2,2.95,10.25,0,6.6,0L6.6,0z"/>
	<g>
		<path class="st0" d="M16.5,17c-0.13,0-0.26-0.05-0.35-0.15l-5.23-5.23c-0.2-0.2-0.2-0.51,0-0.71s0.51-0.2,0.71,0l5.23,5.23
			c0.2,0.2,0.2,0.51,0,0.71C16.76,16.95,16.63,17,16.5,17z"/>
	</g>
</g>
</svg>
