<?xml version="1.0" encoding="utf-8"?>
<!-- Generator: Adobe Illustrator 19.0.0, SVG Export Plug-In . SVG Version: 6.00 Build 0)  -->
<svg version="1.1" id="Layer_1" xmlns="http://www.w3.org/2000/svg" xmlns:xlink="http://www.w3.org/1999/xlink" x="0px" y="0px"
	 viewBox="0 0 18 18" style="enable-background:new 0 0 18 18;" xml:space="preserve">
<style type="text/css">
	.st0{fill:#FFFFFF;}
</style>
<path id="XMLID_2_" class="st0" d="M18,9c0-0.5-0.5-0.8-0.6-0.8l-0.8-0.6L17.4,7C17.8,6.8,18,6.5,18,6.2c0-0.5-0.4-0.7-0.6-0.8
	l-7.1-5c-0.7-0.4-2-0.4-2.7,0l-7.1,5C0.2,5.6,0,5.9,0,6.2C0,6.7,0.5,6.9,0.6,7l0.8,0.6L0.6,8.2C0.2,8.4,0,8.7,0,9
	c0,0.5,0.5,0.8,0.6,0.8l0.8,0.6L0.6,11C0.2,11.2,0,11.5,0,11.8c0,0.5,0.5,0.8,0.6,0.8l7.1,5C8,17.9,8.5,18,9,18c0.5,0,1-0.1,1.4-0.3
	l7.1-5c0.4-0.2,0.6-0.5,0.6-0.8c0-0.5-0.5-0.8-0.6-0.8l-0.8-0.6l0.8-0.6C17.8,9.6,18,9.3,18,9z M8.3,1.3c0.2-0.1,1.2-0.2,1.5,0
	l6.9,4.9l-6.9,4.9c-0.2,0.1-1.2,0.2-1.5,0L1.3,6.2L8.3,1.3z M16.7,11.8l-6.9,4.9c-0.2,0.1-1.2,0.2-1.5,0l-6.9-4.9l1-0.7l5.3,3.8
	C8,15.1,8.5,15.2,9,15.2c0.5,0,1-0.1,1.4-0.3l5.3-3.8L16.7,11.8z M9.8,13.9c-0.2,0.1-1.2,0.2-1.5,0L1.3,9l1-0.7L7.6,12
	C8,12.3,8.5,12.4,9,12.4c0.5,0,1-0.1,1.4-0.3l5.3-3.8l1,0.7L9.8,13.9z"/>
</svg>
