<?xml version="1.0" encoding="utf-8"?>
<!-- Generator: Adobe Illustrator 19.0.0, SVG Export Plug-In . SVG Version: 6.00 Build 0)  -->
<svg version="1.1" id="Layer_1" xmlns="http://www.w3.org/2000/svg" xmlns:xlink="http://www.w3.org/1999/xlink" x="0px" y="0px"
	 width="44px" height="44px" viewBox="0 0 44 44" enable-background="new 0 0 44 44" xml:space="preserve">
<g id="XMLID_2_">
	<g id="XMLID_5_">
		<path id="XMLID_33_" fill="#8b9396" d="M22.001,0C9.851,0,0,9.851,0,22s9.851,22,22.001,22C34.15,44,44,34.149,44,22
			S34.15,0,22.001,0z M34.794,39.651c-0.098,0.103-0.229,0.11-0.361,0.11c-0.124,0-0.248,0.043-0.346-0.05
			c-0.938-0.896-1.92-0.71-3.708-0.71H27.81c-0.163,0-0.316-0.254-0.41-0.388l-2.516-3.778c-0.01-0.015-0.012-0.026-0.02-0.041
			c-0.9,0.571-1.875,0.917-2.872,0.917c-0.98,0-1.938-0.301-2.825-0.853c-0.003,0.004-0.003,0.053-0.005,0.056l-2.458,3.692
			C16.61,38.741,16.456,39,16.29,39h-2.141c-1.928,0-3.202-0.155-4.259,0.751c-0.094,0.081-0.21-0.035-0.325-0.035
			c-0.141,0-0.281-0.015-0.38-0.131c-0.18-0.21-0.155-0.437,0.055-0.617C10.579,37.823,12.154,38,14.149,38h1.876l2.309-3.562
			c0.008-0.012,0.022-0.195,0.031-0.207c-2.273-1.861-3.91-5.199-3.91-8.198c-2.22-5.057-0.307-9.651-0.307-9.651
			c0-2.671,0.714-4.827,6.416-4.827c1.735-1.075,3.304-1.515,4.647-1.515c3.737,0,5.72,3.457,4.619,6.361
			c0,0,2.194,7.603-0.306,9.674c0,2.985-1.622,6.349-3.878,8.216c0.018,0.019,0.041,0.12,0.056,0.142L28.07,38h2.306
			c1.912,0,3.172-0.186,4.402,0.988C34.978,39.178,34.985,39.45,34.794,39.651z"/>
	</g>
	<g id="XMLID_11_">
		<path id="XMLID_19_" fill="#8b9396" d="M28.887,25.262c1.376-1.14,0.819-5.718-0.016-8.604c-0.06-0.208-0.051-0.43,0.026-0.633
			c0.427-1.126,0.273-2.392-0.412-3.384c-0.717-1.039-1.879-1.611-3.271-1.611c-1.267,0-2.654,0.461-4.12,1.37
			c-0.158,0.098-0.341,0.15-0.527,0.15c-5.416,0-5.416,1.947-5.416,3.83c0,0.132-0.026,0.263-0.077,0.384
			c-0.016,0.04-1.712,4.286,0.299,8.866c0.056,0.127,0.084,0.264,0.084,0.402c0,4.207,3.359,8.657,6.535,8.657
			c3.175,0,6.534-4.45,6.534-8.657C28.525,25.734,28.658,25.452,28.887,25.262z"/>
	</g>
</g>
</svg>
