<?xml version="1.0" encoding="utf-8"?>
<!-- Generator: Adobe Illustrator 16.2.0, SVG Export Plug-In . SVG Version: 6.00 Build 0)  -->
<!DOCTYPE svg PUBLIC "-//W3C//DTD SVG 1.1//EN" "http://www.w3.org/Graphics/SVG/1.1/DTD/svg11.dtd">
<svg version="1.1" id="Layer_1" xmlns="http://www.w3.org/2000/svg" xmlns:xlink="http://www.w3.org/1999/xlink" x="0px" y="0px"
	 width="585px" height="548px" viewBox="0 0 585 548" enable-background="new 0 0 585 548" xml:space="preserve">
<g>
	<path fill-rule="evenodd" clip-rule="evenodd" fill="#9DD1E4" d="M280.167,0c146.96,0,266.094,118.925,266.094,265.625
		c0,146.703-119.134,265.626-266.094,265.626c-146.959,0-266.094-118.924-266.094-265.626C14.072,118.925,133.207,0,280.167,0"/>
	<path fill="#587389" d="M537.806,195.984c-15.61-22.66-87.016-64.231-92.938-67.461c-3.941-2.149-10.403-6.209-14.291-8.689
		l1.438-4.312c0.438-1.312-0.278-2.743-1.593-3.179c-1.314-0.438-2.748,0.279-3.185,1.589l-1.448,4.336
		c-4.624-0.473-11.911-1.27-16.21-2.006c-6.65-1.139-88.485-12.812-114.822-4.727c-84.19,25.846-95.311,44.256-95.311,44.256
		s27.145-5.83,53.17,2.549c24.305,7.824,43.342,27.467,43.342,27.467s22.975-3.289,44.808,1.858
		c0.656,0.155,1.302,0.322,1.947,0.491l32.092,62.786l0.381,2.938l-58.088,150.715c-7.117-0.996-14.337-1.797-21.647-2.393
		c-2.117-2.965-8.486-10.887-20.566-18.273l64.623-73.936l-6.506-3.77l-22.653,23.764c-1.642-1.705-5.397-4.051-12.397-1.141
		c-10.074,4.189-35.26,27.648-35.26,36.027c0,5.311,1.684,9.604,2.919,12.041l-1.372,1.441
		c-16.759-7.439-40.961-12.457-74.585-7.617c-24.303,3.498-42.616,11.869-56.398,22.123c-10.711,2.061-18.594,3.793-20.837,4.689
		c-5.853,2.336-9.255,7.928-10.78,11.104l-38.332,6.912l0.84,7.959l46.674-7.859c-6.363,8.832-10.611,17.566-13.418,24.84
		c-54.514,27.85-89.674,64.779-96.92,91.455c-1.119,4.121-1.682,12.016,14.854,8.85c18.034-3.453,21.86-17.361,51.747-15.484
		c26.028,1.635,34.421,23.461,58.767,21.785c24.346-1.676,24.346-12.568,38.618-11.73c14.272,0.838,10.913,11.73,29.383,12.568
		c18.469,0.838,15.112-9.217,44.494-12.568c29.383-3.352,39.458,11.73,55.409,12.568c15.951,0.838,25.186-19.271,66.322-20.109
		c26.872-0.547,27.704,14.244,59.604,15.082c31.903,0.838,26.025-9.217,53.73-10.055c27.703-0.838,47.013,14.244,54.568,5.865
		c7.555-8.379,0.84-18.434,0.84-18.434l0.49,2.916c-11.828-37.789-94.305-99.109-202.357-117.113l57.732-149.794l0.203-0.182
		l73.032-28.453c19.596,9.595,32.731,25.781,32.731,25.781s32.916-2.447,63.353,10.458c14.331,6.075,30.97,25.832,30.97,25.832
		S587.713,268.422,537.806,195.984 M250.584,381.797l-17.06,3.076l16.508-3.24C250.215,381.689,250.402,381.74,250.584,381.797
		 M194.271,377.443c18.878-1.84,34.439-0.867,47.589,2.045c-3.81-0.215-8.576-0.369-14.428-0.369
		c-11.534,0-47.329,5.381-76.076,10.43C162.892,383.58,177.003,379.127,194.271,377.443 M107.889,435.381
		c3.014-6.545,7.31-14.053,13.367-21.469l146.853-24.727c6.667,3.619,12.548,7.82,17.896,12.357
		c-6.724-0.377-13.52-0.57-20.375-0.57C204.741,400.973,150.936,415.236,107.889,435.381 M420.439,218.924l-32.61,29.226
		l11.014-28.578C404.186,219.124,411.772,218.564,420.439,218.924 M378.19,246.087l-5.671-43.666
		c7.357,5.192,13.069,10.513,17.017,14.229L378.19,246.087z M347.987,189.73c7.558,2.541,14.281,6.015,20.134,9.738l5.163,39.751
		L347.987,189.73z M426,219.283c8.537,0.742,17.799,2.497,26.807,6.116l-59.497,23.181L426,219.283z"/>
</g>
</svg>
